<svg width="24" height="24" viewBox="0 0 24 24" fill="none" xmlns="http://www.w3.org/2000/svg">
<path d="M11 20C10.4477 20 10 20.4477 10 21C10 21.5523 10.4477 22 11 22V20ZM15.908 20.782L15.454 19.891L15.454 19.891L15.908 20.782ZM16.782 19.908L17.673 20.362V20.362L16.782 19.908ZM15.908 3.21799L15.454 4.10899L15.454 4.10899L15.908 3.21799ZM16.782 4.09202L15.891 4.54601V4.54601L16.782 4.09202ZM4.09202 3.21799L3.63803 2.32698L3.63803 2.32698L4.09202 3.21799ZM2.32698 3.63803C2.07625 4.13012 2.27191 4.73229 2.764 4.98303C3.25609 5.23376 3.85826 5.0381 4.10899 4.54601L2.32698 3.63803ZM17.979 19.0609C18.0126 18.5097 17.593 18.0355 17.0418 18.0019C16.4905 17.9682 16.0163 18.3878 15.9827 18.9391L17.979 19.0609ZM15.9827 5.06094C16.0163 5.6122 16.4905 6.0318 17.0418 5.99814C17.593 5.96448 18.0126 5.49031 17.979 4.93906L15.9827 5.06094ZM16 11C15.4477 11 15 11.4477 15 12C15 12.5523 15.4477 13 16 13V11ZM20 13C20.5523 13 21 12.5523 21 12C21 11.4477 20.5523 11 20 11V13ZM19.8321 8.4453C19.5257 7.98577 18.9048 7.8616 18.4453 8.16795C17.9858 8.4743 17.8616 9.09517 18.1679 9.5547L19.8321 8.4453ZM20.8151 11.7227L19.983 12.2774L20.8151 11.7227ZM20.8151 12.2774L19.983 11.7227L20.8151 12.2774ZM18.1679 14.4453C17.8616 14.9048 17.9858 15.5257 18.4453 15.8321C18.9048 16.1384 19.5257 16.0142 19.8321 15.5547L18.1679 14.4453ZM5.7313 3.13943L5.36789 4.07106L5.7313 3.13943ZM9.73131 4.69979L10.0947 3.76816L9.73131 4.69979ZM8.26869 21.8606L7.90528 22.7922L8.26869 21.8606ZM4.26869 20.3002L3.90528 21.2318L3.90528 21.2318L4.26869 20.3002ZM6.2 4H13.8V2H6.2V4ZM13.8 20H11V22H13.8V20ZM13.8 22C14.3436 22 14.8114 22.0008 15.195 21.9694C15.5904 21.9371 15.9836 21.8658 16.362 21.673L15.454 19.891C15.4045 19.9162 15.3038 19.9539 15.0322 19.9761C14.7488 19.9992 14.3766 20 13.8 20V22ZM15.891 19.454C15.7951 19.6422 15.6422 19.7951 15.454 19.891L16.362 21.673C16.9265 21.3854 17.3854 20.9265 17.673 20.362L15.891 19.454ZM13.8 4C14.3766 4 14.7488 4.00078 15.0322 4.02393C15.3038 4.04612 15.4045 4.0838 15.454 4.10899L16.362 2.32698C15.9836 2.13419 15.5904 2.06287 15.195 2.03057C14.8114 1.99922 14.3436 2 13.8 2V4ZM15.454 4.10899C15.6422 4.20487 15.7951 4.35785 15.891 4.54601L17.673 3.63803C17.3854 3.07354 16.9265 2.6146 16.362 2.32698L15.454 4.10899ZM6.2 2C5.65645 2 5.18864 1.99922 4.80497 2.03057C4.40963 2.06287 4.01641 2.13419 3.63803 2.32698L4.54601 4.10899C4.59545 4.0838 4.69617 4.04612 4.96784 4.02393C5.25117 4.00078 5.62345 4 6.2 4V2ZM4.10899 4.54601C4.20487 4.35785 4.35785 4.20487 4.54601 4.10899L3.63803 2.32698C3.07354 2.6146 2.6146 3.07354 2.32698 3.63803L4.10899 4.54601ZM15.9827 18.9391C15.9618 19.2811 15.9196 19.3978 15.891 19.454L17.673 20.362C17.8864 19.9432 17.9519 19.5033 17.979 19.0609L15.9827 18.9391ZM17.979 4.93906C17.9519 4.49667 17.8864 4.05683 17.673 3.63803L15.891 4.54601C15.9196 4.60222 15.9618 4.71891 15.9827 5.06094L17.979 4.93906ZM16 13H20V11H16V13ZM18.1679 9.5547L19.983 12.2774L21.6472 11.168L19.8321 8.4453L18.1679 9.5547ZM19.983 11.7227L18.1679 14.4453L19.8321 15.5547L21.6472 12.8321L19.983 11.7227ZM19.983 12.2774C19.8711 12.1094 19.8711 11.8906 19.983 11.7227L21.6472 12.8321C21.983 12.3282 21.983 11.6718 21.6472 11.168L19.983 12.2774ZM5.36789 4.07106L9.36789 5.63142L10.0947 3.76816L6.09472 2.20781L5.36789 4.07106ZM10 6.54818V20.0122H12V6.54818H10ZM8.63211 20.9289L4.63211 19.3686L3.90528 21.2318L7.90528 22.7922L8.63211 20.9289ZM4 18.4518V4.98782H2V18.4518H4ZM4.63211 19.3686C4.24745 19.2185 4 18.8529 4 18.4518H2C2 19.6838 2.7592 20.7848 3.90528 21.2318L4.63211 19.3686ZM10 20.0122C10 20.6975 9.29836 21.1888 8.63211 20.9289L7.90528 22.7922C9.86312 23.5559 12 22.1263 12 20.0122H10ZM9.36789 5.63142C9.75255 5.78147 10 6.14707 10 6.54818H12C12 5.31625 11.2408 4.21523 10.0947 3.76816L9.36789 5.63142ZM6.09472 2.20781C4.13688 1.44408 2 2.87371 2 4.98782H4C4 4.30249 4.70164 3.81116 5.36789 4.07106L6.09472 2.20781Z" fill="#999"/>
</svg>
