<svg width="24" height="24" viewBox="0 0 24 24" fill="none" xmlns="http://www.w3.org/2000/svg">
<path d="M2 8H4L10.2622 10.7397C11.2241 11.1605 11.6664 12.2784 11.2528 13.2434V13.2434C10.837 14.2136 9.71355 14.663 8.74342 14.2472L7 13.5" stroke="#999" stroke-width="2" stroke-linecap="round" stroke-linejoin="round"/>
<path d="M2.44721 16.1056C1.95324 15.8586 1.35256 16.0588 1.10557 16.5528C0.858584 17.0468 1.05881 17.6474 1.55279 17.8944L2.44721 16.1056ZM11.4472 13.1056L10.5528 12.6584L9.65836 14.4472L10.5528 14.8944L11.4472 13.1056ZM13.7331 15.3666L13.2859 16.261L13.7331 15.3666ZM16.4164 17H18V15H16.4164V17ZM18 19H9.88854V21H18V19ZM6.75805 18.261L2.44721 16.1056L1.55279 17.8944L5.86362 20.0498L6.75805 18.261ZM14.1803 14.4721L11.4472 13.1056L10.5528 14.8944L13.2859 16.261L14.1803 14.4721ZM9.88854 19C8.80183 19 7.73004 18.747 6.75805 18.261L5.86362 20.0498C7.11332 20.6747 8.49134 21 9.88854 21V19ZM19 18C19 18.5523 18.5523 19 18 19V21C19.6569 21 21 19.6569 21 18H19ZM18 17C18.5523 17 19 17.4477 19 18H21C21 16.3431 19.6569 15 18 15V17ZM16.4164 15C15.6402 15 14.8746 14.8193 14.1803 14.4721L13.2859 16.261C14.2579 16.747 15.3297 17 16.4164 17V15Z" fill="#999"/>
<path d="M12.6083 8.51043L15.4383 12.0478C16.2389 13.0486 17.7611 13.0486 18.5617 12.0478L21.3917 8.51043C21.7855 8.01818 22 7.40656 22 6.77617V6.65165C22 5.18718 20.8128 4 19.3484 4H19.0509C18.5381 4 18.0463 4.20372 17.6836 4.56635C17.3061 4.94392 16.6939 4.94392 16.3164 4.56635C15.9537 4.20372 15.4619 4 14.9491 4H14.6517C13.1872 4 12 5.18718 12 6.65165V6.77617C12 7.40656 12.2145 8.01818 12.6083 8.51043Z" stroke="#999" stroke-width="2" stroke-linejoin="round"/>
</svg>
