<svg width="24" height="24" viewBox="0 0 24 24" fill="none" xmlns="http://www.w3.org/2000/svg">
<path d="M21 12V10C21 8.34315 19.6569 7 18 7H5C4.46957 7 3.96086 6.78929 3.58579 6.41421C3.21071 6.03914 3 5.53043 3 5C3 4.46957 3.21071 3.96086 3.58579 3.58579C3.96086 3.21071 4.46957 3 5 3H16C17.6569 3 19 4.34315 19 6V7" stroke="#999" stroke-width="2" stroke-linecap="round" stroke-linejoin="round"/>
<path d="M3 5V19C3 19.5304 3.21071 20.0391 3.58579 20.4142C3.96086 20.7893 4.46957 21 5 21H18C19.6569 21 21 19.6569 21 18V16" stroke="#999" stroke-width="2" stroke-linecap="round" stroke-linejoin="round"/>
<path d="M18 12C17.4696 12 16.9609 12.2107 16.5858 12.5858C16.2107 12.9609 16 13.4696 16 14C16 14.5304 16.2107 15.0391 16.5858 15.4142C16.9609 15.7893 17.4696 16 18 16H22V12H18Z" stroke="#999" stroke-width="2" stroke-linecap="round" stroke-linejoin="round"/>
</svg>
