<svg width="24" height="24" viewBox="0 0 24 24" fill="none" xmlns="http://www.w3.org/2000/svg">
<path fill-rule="evenodd" clip-rule="evenodd" d="M16.9879 13.9208L16.5643 15.0501L16.067 16.3747L15.8907 16.844C15.8907 16.844 13.5277 16.8998 12.2571 16.8998C10.5913 16.8998 10.3038 15.7405 10.6433 14.6635C10.8614 13.9714 11.3903 12.5839 11.6545 11.9112C11.8117 11.5103 12.2595 10.9127 13.5521 10.9127H18.6082C18.0517 11.2374 17.5824 11.746 17.3324 12.3321H14.0099C13.6278 12.3321 13.5222 12.6272 13.4906 12.7026C13.2885 13.1854 12.9691 14.1594 12.6777 15.0479C12.5792 15.349 12.7851 15.498 12.9874 15.498L14.2939 15.4963L14.8936 13.9208H16.9879Z" fill="#999"/>
<path fill-rule="evenodd" clip-rule="evenodd" d="M20.0811 13.2446H20.1452L20.393 13.2452L21.2037 13.2446C22.2329 13.2446 22.8026 14.0625 22.4763 15.072C22.1494 16.0817 21.0502 16.9 20.0211 16.9H19.8257H18.1757H16.3428L16.8543 15.5059H20.1273C20.3964 15.5059 20.6844 15.2915 20.7698 15.0273C20.8553 14.7632 20.706 14.5487 20.4368 14.5487H20.0122L18.8682 14.5471C17.8899 14.5471 17.3493 13.7702 17.6594 12.8113C17.9693 11.8522 19.0138 11.0748 19.9915 11.0748H20.1774H21.7445H23.7861L23.2488 12.469H19.891C19.6349 12.469 19.3618 12.6027 19.2803 12.8536C19.199 13.1049 19.341 13.2446 19.5969 13.2446H20.0811Z" fill="#999"/>
<path fill-rule="evenodd" clip-rule="evenodd" d="M7.41519 16.8928L8.29844 14.498H7.87963H7.42905H5.2185H3.72168C3.72168 14.498 3.88719 13.2645 5.50943 13.2645H7.42905H7.87963H8.74811L9.5515 11.0748H11.6505L9.53274 16.8928H7.41519ZM6.71295 14.6579L5.89731 16.8998H3.78905L4.61241 14.6579H6.71295ZM5.1772 13.1194L5.92548 11.082H8.01493L7.27341 13.1194H5.1772Z" fill="#999"/>
<path fill-rule="evenodd" clip-rule="evenodd" d="M4.64819 12.3331C4.23052 12.8741 3.76828 13.2219 3.61596 13.1103C3.46417 12.9986 3.67955 12.4688 4.09702 11.9275C4.51495 11.3863 4.97679 11.0382 5.12905 11.1504C5.28143 11.262 5.06586 11.7918 4.64819 12.3331V12.3331ZM1.44592 12.2261C0.862987 12.7244 0.360805 12.9578 0.128861 12.7876C-0.255797 12.5043 0.249818 11.2153 1.25814 9.90881C2.26627 8.60241 3.39661 7.77258 3.78107 8.05525C4.01929 8.23072 3.91596 8.79167 3.56372 9.50321C3.67107 9.19186 3.67272 8.95882 3.54873 8.86735C3.26595 8.65933 2.43523 9.26947 1.6945 10.2297C0.953507 11.1902 0.581591 12.1374 0.864374 12.3458C0.980049 12.4303 1.18644 12.3789 1.44149 12.2228L1.44592 12.2261ZM3.70117 11.6856C3.22942 12.2968 2.70763 12.6901 2.53544 12.5638C2.36364 12.4373 2.60714 11.8389 3.07849 11.2275C3.5507 10.6163 4.07249 10.2231 4.24422 10.3493C4.41621 10.4759 4.17318 11.0741 3.70117 11.6856V11.6856ZM3.78694 11.7488C4.62796 10.6598 5.04953 9.58512 4.72865 9.34944C4.40797 9.11377 3.46653 9.80539 2.62584 10.8944C1.78522 11.9834 1.36391 13.0576 1.68453 13.2935C2.00521 13.5295 2.94672 12.8377 3.78694 11.7488V11.7488Z" fill="#999"/>
</svg>
