<svg width="24" height="24" viewBox="0 0 24 24" fill="none" xmlns="http://www.w3.org/2000/svg">
<ellipse cx="10" cy="17.5" rx="7" ry="3.5" stroke="#999" stroke-width="2" stroke-linejoin="round"/>
<circle cx="10" cy="7" r="4" stroke="#999" stroke-width="2" stroke-linejoin="round"/>
<path fill-rule="evenodd" clip-rule="evenodd" d="M15.2033 9.98981C14.806 10.6798 14.2753 11.2833 13.6466 11.7652C14.0693 11.9172 14.525 12 15.0001 12C17.2092 12 19.0001 10.2091 19.0001 8C19.0001 5.85798 17.3164 4.1092 15.2002 4.00492C15.5891 4.67856 15.8508 5.43482 15.9525 6.24091C16.5765 6.57945 17.0001 7.24025 17.0001 8C17.0001 9.03598 16.2124 9.88798 15.2033 9.98981Z" fill="#999"/>
<path fill-rule="evenodd" clip-rule="evenodd" d="M18.3073 19.6199C18.7536 18.9675 19.0001 18.2513 19.0001 17.5C19.0001 17.4284 18.9979 17.3571 18.9935 17.2861C19.3899 17.1077 19.6623 16.9228 19.8268 16.7607C19.9153 16.6736 19.9596 16.6058 19.9806 16.563C19.9999 16.5239 20.0001 16.5053 20.0001 16.5C20.0001 16.4947 19.9999 16.4761 19.9806 16.437C19.9596 16.3942 19.9153 16.3264 19.8268 16.2393C19.6442 16.0594 19.3287 15.8514 18.8582 15.6553C18.7067 15.5922 18.5442 15.5324 18.3714 15.4765C17.7213 14.4728 16.6018 13.614 15.1784 13.001C16.8666 13.0202 18.4345 13.3121 19.6274 13.8092C20.2426 14.0655 20.8058 14.3962 21.2304 14.8145C21.6586 15.2363 22.0001 15.8065 22.0001 16.5C22.0001 17.1935 21.6586 17.7637 21.2304 18.1855C20.8058 18.6038 20.2426 18.9345 19.6274 19.1908C19.2265 19.3579 18.7832 19.5018 18.3073 19.6199Z" fill="#999" stroke-width="0.5" />
</svg>
