<svg width="24" height="24" viewBox="0 0 24 24" fill="none" xmlns="http://www.w3.org/2000/svg">
    <path
        d="M19 17H21C21.6 17 22 16.6 22 16V13C22 12.1 21.3 11.3 20.5 11.1C19.4748 10.8152 18.1576 10.498 17.2136 10.2777C16.4236 10.0933 15.7053 9.68098 15.1473 9.09224C14.7261 8.64783 14.2196 8.11958 13.8 7.7C13.3 7.3 12.7 7 12 7H5C4.4 7 3.9 7.4 3.6 7.9L2.2 10.8C2.06758 11.1862 2 11.5917 2 12V16C2 16.6 2.4 17 3 17H5"
        stroke="#999" stroke-width="2" stroke-linecap="round" stroke-linejoin="round" />
    <path
        d="M7 19C8.10457 19 9 18.1046 9 17C9 15.8954 8.10457 15 7 15C5.89543 15 5 15.8954 5 17C5 18.1046 5.89543 19 7 19Z"
        stroke="#999" stroke-width="2" stroke-linecap="round" stroke-linejoin="round" />
    <path d="M9 17H15" stroke="#999" stroke-width="2" stroke-linecap="round" stroke-linejoin="round" />
    <path
        d="M17 19C18.1046 19 19 18.1046 19 17C19 15.8954 18.1046 15 17 15C15.8954 15 15 15.8954 15 17C15 18.1046 15.8954 19 17 19Z"
        stroke="#999" stroke-width="2" stroke-linecap="round" stroke-linejoin="round" />
</svg>