<svg width="24" height="24" viewBox="0 0 24 24" fill="none" xmlns="http://www.w3.org/2000/svg">
<rect x="22" y="3" width="18" height="20" rx="4" transform="rotate(90 22 3)" stroke="#999" stroke-width="2"/>
<path d="M12 9.76389C11.3863 10.3132 11 11.1115 11 12C11 12.8885 11.3863 13.6868 12 14.2361M12 9.76389C12.5308 9.28885 13.2316 9 14 9C15.6569 9 17 10.3431 17 12C17 13.6569 15.6569 15 14 15C13.2316 15 12.5308 14.7111 12 14.2361M12 9.76389C11.4692 9.28885 10.7684 9 10 9C8.34315 9 7 10.3431 7 12C7 13.6569 8.34315 15 10 15C10.7684 15 11.4692 14.7111 12 14.2361" stroke="#999" stroke-width="2"/>
</svg>
