<svg width="24" height="24" viewBox="0 0 24 24" fill="none" xmlns="http://www.w3.org/2000/svg">
<path d="M13 20H6C3.79086 20 2 18.2091 2 16V8C2 5.79086 3.79086 4 6 4H18C20.2091 4 22 5.79086 22 8V13"  stroke-linecap="round"/>
<circle cx="1" cy="1" r="1" transform="matrix(1 0 0 -1 5 9)" fill="#000"/>
<circle cx="2" cy="2" r="2" transform="matrix(1 0 0 -1 10 14)" />
<path d="M20.4142 20L21.7071 18.7071C22.0976 18.3166 22.0976 17.6834 21.7071 17.2929L20.4142 16M16 18L21.4142 18"  stroke-linecap="round"/>
</svg>
