<svg width="24" height="24" viewBox="0 0 24 24" fill="none" xmlns="http://www.w3.org/2000/svg">
<path d="M9 2V22M5 6H4C3.44772 6 3 6.44772 3 7C3 7.55228 3.44772 8 4 8H5M5 16H4C3.44772 16 3 16.4477 3 17C3 17.5523 3.44772 18 4 18H5M8.2 22H16.8C17.9201 22 18.4802 22 18.908 21.782C19.2843 21.5903 19.5903 21.2843 19.782 20.908C20 20.4802 20 19.9201 20 18.8V5.2C20 4.07989 20 3.51984 19.782 3.09202C19.5903 2.71569 19.2843 2.40973 18.908 2.21799C18.4802 2 17.9201 2 16.8 2H8.2C7.0799 2 6.51984 2 6.09202 2.21799C5.71569 2.40973 5.40973 2.71569 5.21799 3.09202C5 3.51984 5 4.0799 5 5.2V18.8C5 19.9201 5 20.4802 5.21799 20.908C5.40973 21.2843 5.71569 21.5903 6.09202 21.782C6.51984 22 7.0799 22 8.2 22Z" stroke="#999"  fill="#000" stroke-width="2" stroke-linecap="round"/>
</svg>
