<svg width="33" height="32" viewBox="0 0 33 32" fill="none" xmlns="http://www.w3.org/2000/svg">
    <path fill-rule="evenodd" clip-rule="evenodd"
        d="M11.6976 5.43046H5.92802V11.2H4.49756V4H11.6976V5.43046ZM6.89756 6.4H14.0976V13.6H6.89756V6.4ZM8.32806 12.1695H12.6671V7.83044H8.32806V12.1695ZM10.0974 9.60002H11.6974V11.2H10.0974V9.60002ZM6.89756 26.4H14.0976V19.2H6.89756V26.4ZM8.32806 20.6304H12.6671V24.9695H8.32806V20.6304ZM10.0974 21.6H11.6974V23.1999H10.0974V21.6ZM26.0976 6.4H18.8976V13.6H26.0976V6.4ZM24.6671 12.1695H20.3281V7.83044H24.6671V12.1695ZM21.2976 9.60002H22.8976V11.2H21.2976V9.60002ZM21.2976 5.43046H27.0576V11.2H28.4976V4H21.2976V5.43046ZM5.92802 27.3695H11.6976V28.7999H4.49756V21.6H5.92802V27.3695ZM27.0576 27.3695H21.2976V28.7999H28.4976V21.6H27.0576V27.3695ZM19.6802 20V23.2H18.0978V18.4H22.8978V20H19.6802ZM26.0976 21.6H24.6671V24.8175H23.2366V21.6H21.8062V24.8175H18.8976V26.4H26.0976V21.6ZM26.0977 16H24.4977V20.8H26.0977V16ZM15.6975 26.4H17.1279V17.4787H22.8975V16H15.6975V26.4ZM10.0976 15.2H6.89756V16.8H10.0976V15.2ZM11.6976 15.2H14.8976V16.8H11.6976V15.2ZM17.2975 6.4H15.6975V13.6H17.2975V6.4Z"
        fill="#000" />
</svg>