<svg width="54" height="32" viewBox="0 0 54 32" fill="none" xmlns="http://www.w3.org/2000/svg">
<mask id="mask0_1151_27286" style="mask-type:luminance" maskUnits="userSpaceOnUse" x="24" y="13" width="18" height="13">
<path fill-rule="evenodd" clip-rule="evenodd" d="M24.1089 13.1226H41.1157V25.7076H24.1089V13.1226Z" fill="white"/>
</mask>
<g mask="url(#mask0_1151_27286)">
<path fill-rule="evenodd" clip-rule="evenodd" d="M37.7098 19.4457L36.8192 21.8196L35.7739 24.6039L35.4034 25.5904C35.4034 25.5904 30.4363 25.7077 27.7654 25.7077C24.2637 25.7077 23.6595 23.2709 24.3732 21.0069C24.8316 19.5521 25.9433 16.6354 26.4987 15.2215C26.8291 14.3788 27.7704 13.1226 30.4875 13.1226H41.1157C39.9459 13.805 38.9594 14.8742 38.4339 16.1061H31.4499C30.6467 16.1061 30.4246 16.7265 30.3584 16.885C29.9334 17.8997 29.2621 19.9473 28.6496 21.8149C28.4424 22.4477 28.8753 22.7609 29.3005 22.7609L32.0468 22.7575L33.3075 19.4457H37.7098Z" fill="#EAEFF0"/>
</g>
<path fill-rule="evenodd" clip-rule="evenodd" d="M44.2118 18.0243H44.3466L44.8674 18.0255L46.5715 18.0243C48.7351 18.0243 49.9325 19.7434 49.2466 21.8656C48.5594 23.9879 46.249 25.7081 44.0858 25.7081H43.675H40.2066H36.3537L37.429 22.7776H44.3089C44.8747 22.7776 45.48 22.3269 45.6595 21.7716C45.8393 21.2163 45.5255 20.7655 44.9595 20.7655H44.067L41.6623 20.7622C39.6059 20.7622 38.4694 19.1291 39.1213 17.1134C39.7728 15.0975 41.9683 13.4632 44.0234 13.4632H44.4143H47.7084H52L50.8705 16.3938H43.8123C43.2738 16.3938 42.6999 16.675 42.5286 17.2024C42.3576 17.7306 42.6561 18.0243 43.1941 18.0243H44.2118Z" fill="#EAEFF0"/>
<path fill-rule="evenodd" clip-rule="evenodd" d="M17.5871 25.6929L19.4438 20.6589H18.5634H17.6163H12.9696H9.82322C9.82322 20.6589 10.1711 18.0661 13.5812 18.0661H17.6163H18.5634H20.389L22.0777 13.4632H26.4899L22.0383 25.6929H17.5871ZM16.1111 20.995L14.3966 25.7076H9.96492L11.6957 20.995H16.1111ZM12.883 17.7611L14.4559 13.4785H18.848L17.2893 17.7611H12.883Z" fill="#EAEFF0"/>
<mask id="mask1_1151_27286" style="mask-type:luminance" maskUnits="userSpaceOnUse" x="2" y="7" width="11" height="12">
<path fill-rule="evenodd" clip-rule="evenodd" d="M2 7H12.8844V18.2245H2V7Z" fill="white"/>
</mask>
<g mask="url(#mask1_1151_27286)">
<path fill-rule="evenodd" clip-rule="evenodd" d="M11.7707 16.1083C10.8927 17.2455 9.92106 17.9766 9.60088 17.742C9.28181 17.5072 9.73453 16.3935 10.6121 15.2557C11.4906 14.1181 12.4614 13.3864 12.7814 13.6222C13.1018 13.8567 12.6486 14.9704 11.7707 16.1083ZM5.03935 15.8834C3.814 16.9307 2.7584 17.4215 2.27084 17.0636C1.46227 16.4681 2.5251 13.7587 4.64464 11.0123C6.76376 8.2662 9.13978 6.52186 9.94793 7.11604C10.4487 7.48488 10.2315 8.66403 9.49105 10.1597C9.71672 9.50524 9.72019 9.01539 9.45955 8.82311C8.86512 8.38584 7.11892 9.66839 5.56188 11.6868C4.00428 13.7059 3.2225 15.6969 3.81692 16.135C4.06007 16.3127 4.49392 16.2045 5.03005 15.8763L5.03935 15.8834ZM9.78013 14.7472C8.7885 16.0319 7.69167 16.8586 7.32972 16.5932C6.9686 16.3272 7.48044 15.0695 8.47123 13.7842C9.46383 12.4994 10.5607 11.6729 10.9216 11.9382C11.2832 12.2044 10.7723 13.4618 9.78013 14.7472ZM9.96023 14.8799C11.7281 12.5909 12.6142 10.3319 11.9397 9.8365C11.2657 9.34109 9.2867 10.7949 7.51954 13.084C5.75251 15.3732 4.86692 17.6312 5.54086 18.1271C6.21495 18.6231 8.19404 17.1689 9.96023 14.8799Z" fill="#EAEFF0"/>
</g>
</svg>
