<svg width="24" height="24" viewBox="0 0 24 24" fill="none" xmlns="http://www.w3.org/2000/svg">
    <path fill-rule="evenodd" clip-rule="evenodd"
        d="M12.2376 18.3C12.2376 18.3 6.00369 17.8513 2 13.5929L8.35574 9.90002C8.35574 9.90002 8.48074 15.7028 14.3623 16.9423C20.6456 18.2659 21.056 12.0827 21.056 12.0827L22.1 13.7892C22.1 13.7892 19.7208 19.2445 13.3557 17.4367C8.39652 16.0288 7.09883 12.2637 7.09883 12.2637L4.31208 13.8348C4.31208 13.8348 7.06018 16.9826 12.2376 18.3"
        fill="#000" />
    <path fill-rule="evenodd" clip-rule="evenodd"
        d="M14.9621 12.642C14.9621 12.642 12.3659 13.1119 10.166 10.462C10.166 10.462 11.0039 10.725 12.587 10.8832C12.587 10.8832 10.7737 9.94983 9.99235 8.75231C9.99235 8.75231 10.6213 9.04978 12.518 9.18308C12.518 9.18308 12.2416 8.92085 11.4183 8.4797C9.47699 7.26116 8.9 6 8.9 6C9.83683 6.8476 11.0469 6.38078 14.677 7.6138C19.2622 9.17133 19.6307 10.8799 19.6955 11.8707C19.7863 13.255 18.4699 14.7 18.4699 14.7C18.4699 14.7 19.2116 11.1736 16.3657 9.61439C13.303 7.93503 10.3233 7.21281 10.3233 7.21281C10.3233 7.21281 10.4993 7.51328 11.2748 7.98529C11.2748 7.98529 11.6321 8.18852 11.808 8.27948C12.8529 8.78728 13.4889 9.02738 13.7237 9.61576C13.7237 9.61576 12.5912 9.90093 11.3934 9.48164C11.3934 9.48164 12.218 10.3459 13.7842 11.3033C13.7842 11.3033 12.7756 11.6177 11.5786 11.1981C11.5786 11.1981 12.7897 12.6437 14.9621 12.642"
        fill="#000" />
</svg>