<svg width="24" height="24" viewBox="0 0 24 24" fill="none" xmlns="http://www.w3.org/2000/svg">
<path d="M11 16C11 16.5523 11.4477 17 12 17C12.5523 17 13 16.5523 13 16H11ZM13 4.99997C13 4.44769 12.5523 3.99997 12 3.99997C11.4477 3.99997 11 4.44769 11 4.99997L13 4.99997ZM15.2929 7.70708C15.6834 8.0976 16.3166 8.0976 16.7071 7.70708C17.0976 7.31655 17.0976 6.68339 16.7071 6.29286L15.2929 7.70708ZM12.7071 3.70708L12 4.41418L12.7071 3.70708ZM11.2929 3.70708L12 4.41419L12 4.41418L11.2929 3.70708ZM7.29289 6.29286C6.90237 6.68339 6.90237 7.31655 7.29289 7.70708C7.68342 8.0976 8.31658 8.0976 8.70711 7.70708L7.29289 6.29286ZM4 16C4 15.4477 3.55228 15 3 15C2.44772 15 2 15.4477 2 16H4ZM22 16C22 15.4477 21.5523 15 21 15C20.4477 15 20 15.4477 20 16H22ZM19.362 20.673L18.908 19.782H18.908L19.362 20.673ZM20.673 19.3619L21.564 19.8159V19.8159L20.673 19.3619ZM3.32698 19.3619L2.43597 19.8159L3.32698 19.3619ZM4.63803 20.673L4.18404 21.564H4.18404L4.63803 20.673ZM13 16L13 4.99997L11 4.99997L11 16H13ZM16.7071 6.29286L13.4142 2.99997L12 4.41418L15.2929 7.70708L16.7071 6.29286ZM10.5858 2.99997L7.29289 6.29286L8.70711 7.70708L12 4.41419L10.5858 2.99997ZM13.4142 2.99997C12.6332 2.21892 11.3668 2.21892 10.5858 2.99997L12 4.41418L12 4.41418L13.4142 2.99997ZM2 16V16.2H4V16H2ZM7.8 22H16.2V20H7.8V22ZM22 16.2V16H20V16.2H22ZM16.2 22C17.0236 22 17.7014 22.0007 18.2518 21.9558C18.8139 21.9099 19.3306 21.8113 19.816 21.564L18.908 19.782C18.7516 19.8617 18.5274 19.9266 18.089 19.9624C17.6389 19.9992 17.0566 20 16.2 20V22ZM20 16.2C20 17.0566 19.9992 17.6388 19.9624 18.0889C19.9266 18.5273 19.8617 18.7516 19.782 18.908L21.564 19.8159C21.8113 19.3306 21.9099 18.8139 21.9558 18.2518C22.0008 17.7014 22 17.0235 22 16.2H20ZM19.816 21.564C20.5686 21.1805 21.1805 20.5686 21.564 19.8159L19.782 18.908C19.5903 19.2843 19.2843 19.5902 18.908 19.782L19.816 21.564ZM2 16.2C2 17.0235 1.99922 17.7014 2.04419 18.2518C2.09012 18.8139 2.18868 19.3306 2.43597 19.8159L4.21799 18.908C4.1383 18.7516 4.07337 18.5273 4.03755 18.0889C4.00078 17.6388 4 17.0566 4 16.2H2ZM7.8 20C6.94342 20 6.36113 19.9992 5.91104 19.9624C5.47262 19.9266 5.24842 19.8617 5.09202 19.782L4.18404 21.564C4.66937 21.8113 5.18608 21.9099 5.74817 21.9558C6.2986 22.0007 6.97642 22 7.8 22V20ZM2.43597 19.8159C2.81947 20.5686 3.43139 21.1805 4.18404 21.564L5.09202 19.782C4.71569 19.5902 4.40973 19.2843 4.21799 18.908L2.43597 19.8159Z" fill="#000"/>
</svg>
