<svg width="25" height="24" viewBox="0 0 25 24" fill="none" xmlns="http://www.w3.org/2000/svg">
    <path
        d="M10.5 6H16.5M10.5 14H16.5M10.5 10H22.5M10.5 18H22.5M3.5 10H5.5C6.05228 10 6.5 9.55228 6.5 9V7C6.5 6.44772 6.05228 6 5.5 6H3.5C2.94772 6 2.5 6.44772 2.5 7V9C2.5 9.55228 2.94772 10 3.5 10ZM3.5 18H5.5C6.05228 18 6.5 17.5523 6.5 17V15C6.5 14.4477 6.05228 14 5.5 14H3.5C2.94772 14 2.5 14.4477 2.5 15V17C2.5 17.5523 2.94772 18 3.5 18Z"
        stroke="#999" stroke-linecap="round" />
</svg>