<svg width="24" height="24" viewBox="0 0 24 24" fill="none" xmlns="http://www.w3.org/2000/svg">
    <path
        d="M15.3622 20.1884C14.6047 20.8569 13.6097 21.2626 12.5199 21.2626C11.4302 21.2626 10.4352 20.8569 9.67767 20.1884M18.9628 12.8627V9.44565C18.9628 5.8766 16.089 3 12.5199 3C8.95088 3 6.03814 5.75397 6.03814 9.44565V12.8396C6.03814 13.3586 5.95724 13.8743 5.79856 14.3667L5.00524 16.8284C4.98352 16.8958 5.03203 16.9654 5.10072 16.9654H19.8929C19.9655 16.9654 20.017 16.8947 19.9948 16.8255L19.1961 14.3471C19.0415 13.8675 18.9628 13.3666 18.9628 12.8627Z"
        stroke="#999" stroke-linecap="round" />
</svg>
    