<svg width="24" height="24" viewBox="0 0 24 24" fill="none" xmlns="http://www.w3.org/2000/svg">
<path d="M12.2547 1C13.0152 1 13.6297 1.61445 13.6297 2.375V3.90898C13.6985 3.91758 13.7629 3.92617 13.8317 3.93906C13.8488 3.94336 13.8617 3.94336 13.8789 3.94766L15.9414 4.32578C16.6891 4.46328 17.1832 5.18086 17.0457 5.92422C16.9082 6.66758 16.1906 7.16602 15.4473 7.02852L13.4063 6.65469C12.0613 6.45703 10.8754 6.59023 10.0418 6.92109C9.20822 7.25195 8.87306 7.70742 8.79572 8.12852C8.70978 8.58828 8.77423 8.84609 8.84728 9.00508C8.92462 9.17266 9.08361 9.36172 9.39728 9.57227C10.0977 10.032 11.1719 10.3328 12.5641 10.7023L12.6887 10.7367C13.9176 11.0633 15.4215 11.4586 16.5387 12.1891C17.1488 12.5887 17.7246 13.1301 18.0813 13.8863C18.4465 14.6555 18.5238 15.5148 18.3563 16.4301C18.0598 18.0629 16.934 19.1543 15.5375 19.7258C14.9488 19.9664 14.3086 20.1211 13.6297 20.1984V21.625C13.6297 22.3855 13.0152 23 12.2547 23C11.4942 23 10.8797 22.3855 10.8797 21.625V20.1254C10.8625 20.1211 10.841 20.1211 10.8238 20.1168H10.8152C9.76681 19.9535 8.04376 19.5023 6.88361 18.9867C6.19181 18.6773 5.87814 17.8652 6.18751 17.1734C6.49689 16.4816 7.309 16.168 8.00079 16.4773C8.89884 16.877 10.377 17.2723 11.232 17.4055C12.6027 17.6074 13.7328 17.4914 14.4977 17.1777C15.2238 16.8812 15.5547 16.4516 15.6492 15.9359C15.7309 15.4805 15.6664 15.2184 15.5934 15.0594C15.5117 14.8875 15.3527 14.6984 15.0348 14.4879C14.3301 14.0281 13.2516 13.7273 11.8551 13.3578L11.7348 13.3277C10.5102 13.0012 9.00626 12.6016 7.88908 11.8711C7.27892 11.4715 6.70744 10.9258 6.35079 10.1695C5.98986 9.40039 5.91681 8.54102 6.08869 7.62578C6.39806 5.98437 7.62697 4.91875 9.02345 4.36445C9.59493 4.13672 10.2223 3.98203 10.8797 3.8918V2.375C10.8797 1.61445 11.4942 1 12.2547 1Z" fill="#000"/>
</svg>
