<svg width="24" height="24" viewBox="0 0 24 24" fill="none" xmlns="http://www.w3.org/2000/svg">
<path d="M10 7.73214C10 6.14732 11.2857 4.85714 12.875 4.85714C13.183 4.85714 13.4911 4.90625 13.7857 5.00446L17.4107 6.21429C18.1607 6.46429 18.9688 6.05804 19.2188 5.3125C19.4688 4.56696 19.0625 3.75446 18.317 3.50446L14.6875 2.29464C14.1027 2.09821 13.4911 2 12.875 2C9.70982 2 7.14286 4.56696 7.14286 7.73214V10.5714H6.42857C5.63839 10.5714 5 11.2098 5 12C5 12.7902 5.63839 13.4286 6.42857 13.4286H7.14286V15.4152C7.14286 16.192 6.93304 16.9554 6.53125 17.6205L5.20536 19.8348C4.94196 20.2768 4.93304 20.8259 5.1875 21.2723C5.44196 21.7188 5.91518 22 6.42857 22H17.8571C18.6473 22 19.2857 21.3616 19.2857 20.5714C19.2857 19.7813 18.6473 19.1429 17.8571 19.1429H8.95089L8.98214 19.0938C9.64732 17.9821 10 16.7098 10 15.4152V13.4286H15C15.7902 13.4286 16.4286 12.7902 16.4286 12C16.4286 11.2098 15.7902 10.5714 15 10.5714H10V7.73214Z" fill="#000"/>
</svg>
