<svg width="24" height="24" viewBox="0 0 24 24" fill="none" xmlns="http://www.w3.org/2000/svg">
<path d="M7.28813 2C8.07831 2 8.7167 2.63839 8.7167 3.42857V5.00446L14.0381 3.48214C14.7971 3.26339 15.5872 3.70536 15.806 4.46429C16.0247 5.22321 15.5828 6.01339 14.8238 6.23214L8.7167 7.97768V9.29018L14.0381 7.76786C14.7971 7.54911 15.5872 7.99107 15.806 8.75C16.0247 9.50893 15.5828 10.2991 14.8238 10.5179L8.7167 12.2634V19.1429H11.5649C14.6096 19.1429 17.1185 16.7545 17.2703 13.7143L17.2881 13.3571C17.3283 12.567 17.998 11.9643 18.7881 12C19.5783 12.0357 20.181 12.7098 20.1453 13.5L20.1274 13.8571C19.8997 18.4196 16.1319 22 11.5649 22H7.28813C6.49795 22 5.85956 21.3616 5.85956 20.5714V13.0759L4.82384 13.3705C4.06492 13.5893 3.27474 13.1473 3.05599 12.3884C2.83724 11.6295 3.2792 10.8393 4.03813 10.6205L5.85956 10.1071V8.79018L4.82384 9.08482C4.06492 9.30357 3.27474 8.86161 3.05599 8.10268C2.83724 7.34375 3.2792 6.55357 4.03813 6.33482L5.85956 5.82143V3.42857C5.85956 2.63839 6.49795 2 7.28813 2Z" fill="#000"/>
</svg>
