<svg width="24" height="24" viewBox="0 0 24 24" fill="none" xmlns="http://www.w3.org/2000/svg">
<path d="M7.14732 11.2857C7.14286 11.4063 7.14286 11.5223 7.14286 11.6429V12.3571C7.14286 12.4777 7.14286 12.5938 7.14732 12.7143H6.42857C5.63839 12.7143 5 13.3527 5 14.1429C5 14.933 5.63839 15.5714 6.42857 15.5714H7.69196C9.01339 19.317 12.5893 22 16.7857 22H17.8571C18.6473 22 19.2857 21.3616 19.2857 20.5714C19.2857 19.7813 18.6473 19.1429 17.8571 19.1429H16.7857C14.2009 19.1429 11.9554 17.6964 10.808 15.5714H16.4286C17.2188 15.5714 17.8571 14.933 17.8571 14.1429C17.8571 13.3527 17.2188 12.7143 16.4286 12.7143H10.0089C10.0045 12.5982 10 12.4777 10 12.3571V11.6429C10 11.5223 10.0045 11.4018 10.0089 11.2857H16.4286C17.2188 11.2857 17.8571 10.6473 17.8571 9.85714C17.8571 9.06696 17.2188 8.42857 16.4286 8.42857H10.808C11.9554 6.30357 14.2009 4.85714 16.7857 4.85714H17.8571C18.6473 4.85714 19.2857 4.21875 19.2857 3.42857C19.2857 2.63839 18.6473 2 17.8571 2H16.7857C12.5893 2 9.01339 4.68304 7.69196 8.42857H6.42857C5.63839 8.42857 5 9.06696 5 9.85714C5 10.6473 5.63839 11.2857 6.42857 11.2857H7.14732Z" fill="#000"/>
</svg>
